<svg id="barruanimation" xmlns="http://www.w3.org/2000/svg" xmlns:xlink="http://www.w3.org/1999/xlink" viewBox="0 0 270 270" shape-rendering="geometricPrecision" text-rendering="geometricPrecision"><g id="barruanimation-s-g1" transform="matrix(0 0 0 0 136.807846 142.730332)"><ellipse id="barruanimation-s-ellipse1" rx="82.725287" ry="82.725287" transform="translate(150.08908 185.414586)" fill="#473453" stroke-width="0"/><ellipse id="barruanimation-s-ellipse2" rx="31.036169" ry="18.276855" transform="translate(149.951194 202.755478)" fill="#ba744e" stroke-width="0"/><path id="barruanimation-s-path1" d="M149.980639,204.2491Q103.999998,204.999997,80,230c0,.000001,9.756684,15.645682,26.999998,25.999997c14.073787,8.451068,33,12,42.904956,12.000002c11.095044-.000002,28.095044-3.000002,43.095044-12.000002c15.741478-9.444887,27-25.999997,27-25.999997q-27-27.000003-70.019359-25.7509Z" transform="translate(.000002 0.000003)" fill="#ba744e" stroke="rgba(63,87,135,0)" stroke-width="0.6"/><path id="barruanimation-s-path2" d="M149.980639,211.2491Q98.999998,209.999997,80,229c0,.000001,9.756684,16.645682,26.999998,26.999997c14.073787,8.451068,33,12,42.904956,12.000002c11.095044-.000002,28.095044-3.000002,43.095044-12.000002c15.741478-9.444887,27-26.999997,27-26.999997q-19-20.000003-70.019359-17.7509Z" transform="translate(.000002 1.000003)" fill="#e38f62" stroke="rgba(63,87,135,0)" stroke-width="0.6"/><path id="barruanimation-s-path3" d="M140,210l.000001,23.999994L140,240c0,.725411.039467,1.411355.1184,2.057833C140.764877,247.352611,144.058744,250,150,250q10,0,10,0q10,0,10-10t0-30h-30" transform="translate(-4.89-37.914087)" fill="#e4c9a0" stroke="rgba(63,87,135,0)" stroke-width="0.6"/><path id="barruanimation-s-path4" d="M135.061707,195.571983v4.474802q0,2.728538,14.843245,2.946821t15.061528-2.182831l.10914-5.7845q-29.577349-.436567-29.577349-.327425" transform="translate(.000003 0.393718)" fill="#c5ad88" stroke="rgba(63,87,135,0)" stroke-width="0.6"/><ellipse id="barruanimation-s-ellipse3" rx="10" ry="15" transform="matrix(.8 0 0 0.8 190.172784 143.752054)" fill="#c5ad88" stroke-width="0"/><ellipse id="barruanimation-s-ellipse4" rx="10" ry="15" transform="matrix(.8 0 0 0.8 110.172784 143.433528)" fill="#c5ad88" stroke-width="0"/><path id="barruanimation-s-path5" d="M100,130q.019361-27.2491,20.019361-35.2491c20-8,20-8,40,0C180.019361,102.7509,180,130,180,130q0,30,0,30q0,40-40,40t-40-40v-30Z" transform="translate(9.980639-1.357183)" fill="#e4c9a0" stroke="rgba(63,87,135,0)" stroke-width="0.6"/><path id="barruanimation-s-path6" d="M120,160c10,0,10.064466,5,20.064466,5s9.935534-5,19.935534-5s10.064466,10,10.064466,10s0,24-20,24c-6,0-13.33333,0-20,0C110.064466,194,110,170,110,170s0-10,10-10Z" transform="translate(9.508835-2.306631)" fill="#fff" stroke="rgba(63,87,135,0)" stroke-width="0.6"/><path id="barruanimation-s-path7" d="M120.904719,168.285983q-.382614,8.743616,10.617386,8.743616c11,0-8.690334.978266-6.690334,6.978266s-5.927052-11.721882-3.927052-15.721882Z" transform="matrix(-.821534 0 0 0.875115 278.87032 19.753162)" fill="#222" stroke-width="0.6"/><path id="barruanimation-s-path8" d="M120.018389,168.23991q.503716,8.789689,11.503716,8.789689c11,0-9.394479,1.000283-7.394479,7.000283s-6.109237-11.789972-4.109237-15.789972Z" transform="matrix(.821534 0 0 0.875115 20.843752 19.753162)" fill="#222" stroke-width="0.6"/><path id="barruanimation-s-path9" d="M140,162c6.81001,3.160184,12.486698,2.666324,20,0s8.666667-6.713765,10-1.380432-2.820948,10.514704-10,13.380432-14.216564,2.124936-20,0-11.995548-8.739996-10-14s3.18999-1.160184,10,2Z" transform="matrix(.5 0 0 0.25 74.182322 110.182068)" fill="#c5ad88" stroke="rgba(63,87,135,0)" stroke-width="0.6"/><path id="barruanimation-s-path10" d="M140,174c6.81001,3.160184,12.486698,2.666324,20,0s8.666667-18.713765,10-13.380432-2.820948,22.514704-10,25.380432-14.216564,2.124936-20,0-11.995548-20.739996-10-26s3.18999,10.839816,10,14Z" transform="matrix(.45 0 0-.25 64.682322 172.182068)" fill="#222" stroke="rgba(63,87,135,0)" stroke-width="0.6"/><path id="barruanimation-s-path11" d="M140,174c6.81001,3.160184,12.486698,2.666324,20,0s8.666667-18.713765,10-13.380432-2.820948,22.514704-10,25.380432-14.216564,2.124936-20,0-11.995548-20.739996-10-26s3.18999,10.839816,10,14Z" transform="matrix(.45 0 0-.25 97.682322 172.182068)" fill="#222" stroke="rgba(63,87,135,0)" stroke-width="0.6"/><path id="barruanimation-s-path12" d="M137.777778,178c5.960717,6.846596,19.294048,2.846596,24.444444-4s5.150396,5.153404-2.222222,12-14.849604,9.153404-20,4-8.182938-18.846596-2.222222-12Z" transform="matrix(.45 0 0-.25 97.682322 161.182068)" fill="#222" stroke="rgba(63,87,135,0)" stroke-width="0.6"/><path id="barruanimation-s-path13" d="M137.777778,178c5.960717,6.846596,19.294048,2.846596,24.444444-4s5.150396,5.153404-2.222222,12-14.849604,9.153404-20,4-8.182938-18.846596-2.222222-12Z" transform="matrix(-.45 0 0-.25 198.682322 164.182068)" fill="#222" stroke="rgba(63,87,135,0)" stroke-width="0.6"/><path id="barruanimation-s-path14" d="M110,133l1-25q.999998-10,3.999998-12c3-2,0,1,1,3s0-2,4-8s1,1,2,2s6-9.999999,10-11-1,1,0,4s11.000004-5,16.000002-12q4.999998-7,14,12-.000002-2-1.000002-6c-1-4,9.000001,2,11.000001,9q2,7,1.999999-3q4,5,6,11t-1-6q8,4,9,10t2,32q-3-17-6-24t-9-7q-13,2-10,1t3-3q-16,5-14,3t4-5l-9,7-7-7q.418863,3.418863,2,5c2,2-8-2-13-3s-9-1-13,7-7.999996,15-7.999998,26Z" transform="translate(.000002-1.606283)" fill="#655330" stroke="#332b19" stroke-width="0.2"/><path id="barruanimation-s-path15" d="" transform="translate(0-1.606283)" fill="none" stroke="#3f5787" stroke-width="0.6"/><path id="barruanimation-s-path16" d="" transform="translate(0-1.606283)" fill="none" stroke="#3f5787" stroke-width="0.6"/><path id="barruanimation-s-path17" d="" transform="translate(0-1.606283)" fill="none" stroke="#3f5787" stroke-width="0.6"/><path id="barruanimation-s-path18" d="" transform="translate(0-1.606283)" fill="none" stroke="#3f5787" stroke-width="0.6"/></g><g id="barruanimation-s-g2" transform="matrix(0 0 0 0 214.593788 179.63002)"><ellipse id="barruanimation-s-ellipse5" rx="37.935068" ry="29.995171" transform="translate(214.593773 182.759245)" fill="#fff" stroke="#8e8e8e"/><path id="barruanimation-s-path19" d="M178.460226,147.027775q13.82709,3.899948,12.054386,17.727038t11.699845-4.60903q-2.127242-16.308875-23.754231-13.118008Z" transform="translate(.000003 0.000001)" fill="#fff" stroke="rgba(101,101,101,0)" stroke-width="0.54"/></g>
<!-- <script><![CDATA[]]></script> -->
</svg>
